<?xml version="1.0" encoding="UTF-8"?>
<svg id="Capa_1" data-name="Capa 1" xmlns="http://www.w3.org/2000/svg" xmlns:xlink="http://www.w3.org/1999/xlink" viewBox="0 0 150 150">
  <defs>
    <style>
      .cls-1 {
        fill: #f2a223;
      }

      .cls-2 {
        fill: #10807f;
      }

      .cls-3 {
        fill: #fff;
      }

      .cls-4 {
        fill: #db7f0c;
      }

      .cls-5 {
        fill: #811914;
      }

      .cls-6 {
        filter: url(#drop-shadow-1);
      }

      .cls-7 {
        fill: #ef902a;
      }

      .cls-8 {
        fill: #13b1b6;
      }
    </style>
    <filter id="drop-shadow-1" x="1.32" y="57" width="149.28" height="38.16" filterUnits="userSpaceOnUse">
      <feOffset dx="1" dy="1"/>
      <feGaussianBlur result="blur" stdDeviation="1"/>
      <feFlood flood-color="#000" flood-opacity=".3"/>
      <feComposite in2="blur" operator="in"/>
      <feComposite in="SourceGraphic"/>
    </filter>
  </defs>
  <circle class="cls-7" cx="75" cy="75" r="75"/>
  <g class="cls-6">
    <polygon class="cls-8" points="106.59 82.76 107.86 84.03 107.8 65.93 106.69 64.77 106.59 82.76"/>
    <polygon class="cls-8" points="100.34 64.76 101.26 66.11 95.1 84.02 93.61 82.75 100.34 64.76"/>
    <polygon class="cls-8" points="126.29 64.77 127.43 65.82 120.64 84.04 119.56 82.75 126.29 64.77"/>
    <polygon class="cls-8" points="114.81 66.22 113.39 64.76 117.6 76.52 118.08 75.27 114.81 66.22"/>
    <polygon class="cls-2" points="89.71 82.75 91.17 84.02 95.1 84.02 93.6 82.75 89.71 82.75"/>
    <polygon class="cls-2" points="102.78 82.76 104.36 84.01 107.86 84.03 106.59 82.76 102.78 82.76"/>
    <polygon class="cls-2" points="115.66 82.75 117.08 84.02 120.64 84.04 119.55 82.75 115.66 82.75"/>
    <polygon class="cls-8" points="91.65 76.56 92.03 75.57 88.53 65.86 87.44 64.76 91.65 76.56"/>
    <path class="cls-2" d="M11.7,69.66c-.14-.33-.29-.48-.47-.65-.19-.18-.53-.33-.96-.33h-1.56l1.28.97h1.71Z"/>
    <polygon class="cls-2" points="17.96 84.06 16.54 82.75 12.24 82.75 13.62 84.06 17.96 84.06"/>
    <polygon class="cls-2" points="31.05 82.77 32.46 84.06 36.28 84.06 34.99 82.77 31.05 82.77"/>
    <path class="cls-8" d="M16.54,82.75l1.42,1.31-3.7-8c1.65-.88,2.76-2.65,2.76-4.64,0-1.69-2.4-4.52-2.43-4.56.73.95,1.16,2.12,1.15,3.41-.02,1.96-1.03,3.73-2.69,4.7l3.49,7.78Z"/>
    <polygon class="cls-2" points="49.38 82.74 50.78 84.02 54.97 84.02 53.55 82.74 49.38 82.74"/>
    <polygon class="cls-8" points="46.53 64.75 47.72 65.98 51.89 76.36 51.53 77.27 46.53 64.75"/>
    <polygon class="cls-8" points="8.71 71.79 9.99 71.77 9.99 69.65 8.71 68.68 8.71 71.79"/>
    <polygon class="cls-8" points="46.2 74.78 46.2 82.77 47.77 84.04 47.78 78.76 46.2 74.78"/>
    <polygon class="cls-8" points="60.64 64.78 60.64 82.76 62.15 84.06 62.15 66.48 60.64 64.78"/>
    <polygon class="cls-8" points="23.16 82.77 24.24 84.06 24.24 65.69 23.16 64.76 23.16 82.77"/>
    <polygon class="cls-8" points="56.73 74.83 53.55 82.74 54.97 84.04 56.73 79.69 56.73 74.83"/>
    <polygon class="cls-2" points="42.36 82.77 43.77 84.05 47.77 84.04 46.2 82.77 42.36 82.77"/>
    <polygon class="cls-2" points="56.73 82.74 58.14 84.06 62.15 84.06 60.64 82.74 56.73 82.74"/>
    <polygon class="cls-2" points="8.71 82.75 4.79 82.75 6.28 84.06 9.99 84.06 8.71 82.75"/>
    <polygon class="cls-8" points="9.07 75.71 8.71 75.71 8.71 82.75 9.99 84.06 9.99 77.74 9.07 75.71"/>
    <polygon class="cls-2" points="20.73 84.06 19.25 82.77 23.16 82.77 24.24 84.06 20.73 84.06"/>
    <path class="cls-2" d="M31.05,68.71v1.66h-3.45l-1.48-1.66h4.93ZM34.99,68.71l1.3,1.52h4.82l-1.18-1.52h-4.94Z"/>
    <polygon class="cls-8" points="34.99 68.71 34.99 82.77 36.28 84.06 36.28 70.24 34.99 68.71"/>
    <path class="cls-1" d="M144.83,73.52c0-4.79-3.9-8.69-8.69-8.69-.09,0-.17,0-.26,0-4.73.14-8.44,3.96-8.44,8.69,0,.06,0,.11,0,.16.09,4.7,3.99,8.53,8.69,8.53s8.69-3.9,8.69-8.7M130.4,73.7c0-.06,0-.12,0-.18,0-3.05,2.4-5.56,5.46-5.71.09,0,.19,0,.28,0,3.15,0,5.72,2.57,5.72,5.72s-2.57,5.74-5.72,5.74-5.65-2.44-5.74-5.56M57.14,82.33v-9.62s-3.87,9.62-3.87,9.62h-3.62l-3.9-9.65.02,9.66h-2.99s.03-17.17.03-17.17h3.46s5.26,13.19,5.26,13.19l5.26-13.19h3.43v17.16h-3.09ZM12.51,82.35h3.4l-3.38-7.55.17-.1c1.63-.83,2.65-2.57,2.63-4.46-.02-2.86-2.26-5.06-5.03-5.06h-5.07s-.04,17.15-.04,17.15h3.1l.02-7h1.02s3.19,7.02,3.19,7.02ZM8.29,68.28h1.97c1.09,0,1.97.88,1.97,1.97s-.88,1.94-1.97,1.94h-1.97v-3.91ZM87.15,65.16l4.5,12.58,4.79-12.57h3.3l-6.43,17.15h-3.33l-6.13-17.16h3.3ZM113.1,65.18l4.5,12.59,4.79-12.58,3.3.03-6.38,17.14h-3.36s-6.14-17.18-6.14-17.18h3.3ZM106.3,65.19l-.13,17.11h-2.96s.13-17.11.13-17.11h2.97ZM22.75,82.36h-3.1s0-17.21,0-17.21h3.09v17.21ZM31.46,82.33v-14.05s-4.93,0-4.93,0v-3.11h12.99v3.11s-4.95,0-4.95,0v14.05s-3.11,0-3.11,0Z"/>
    <polygon class="cls-8" points="39.93 68.72 39.93 64.76 41.11 66.07 41.11 70.25 39.93 68.72"/>
    <path class="cls-3" d="M26.12,68.72h4.93v14.04s3.94,0,3.94,0v-14.04h4.94v-3.96h-13.81v3.96ZM26.53,65.17h12.99v3.11s-4.95,0-4.95,0v14.05s-3.1,0-3.1,0v-14.05h-4.94v-3.11ZM10.26,68.3h-1.97s0,3.91,0,3.91h1.97c1.09,0,1.98-.89,1.97-1.96-.01-1.07-.89-1.95-1.96-1.95M10.27,71.78l-1.56.02v-3.11h1.56c.22,0,.43.04.62.11.43.16.94.8.93,1.44,0,.84-.7,1.53-1.56,1.53M15.74,70.24c.01-3.03-2.45-5.49-5.47-5.49h-5.47v18.01s3.91,0,3.91,0v-7.05h.36l3.17,7.05h4.3s-3.49-7.78-3.49-7.78c1.67-.97,2.69-2.78,2.69-4.74M15.91,82.36h-3.4l-3.18-7.04h-1.03s-.02,7.01-.02,7.01h-3.1l.02-17.17h5.06c2.8-.01,5.05,2.26,5.06,5.08,0,1.86-.96,3.61-2.63,4.46l-.17.1,3.39,7.55ZM19.25,82.77h3.91v-18.01h-3.91v18.01ZM19.66,65.16h3.09v17.2h-3.09v-17.2ZM51.53,77.27l-5.01-12.51h-4.1s-.07,18.01-.07,18.01h3.84v-7.96l3.18,7.93h4.18l3.18-7.93v7.93h3.91v-17.98h-4.12l-4.99,12.51ZM60.23,65.17v17.16h-3.09v-9.65l-3.87,9.65h-3.62l-3.9-9.65.02,9.66h-2.99s.03-17.17.03-17.17h3.46s5.26,13.19,5.26,13.19l5.26-13.19h3.43ZM117.6,76.53l-4.21-11.77h-4.19s6.45,18,6.45,18h3.9s6.73-18,6.73-18h-4.19l-4.5,11.77ZM125.69,65.22l-6.38,17.14h-3.36s-6.14-17.18-6.14-17.18h3.3l4.5,12.58,4.79-12.57,3.3.03ZM102.78,82.76h3.8l.11-17.99h-3.8l-.11,17.99ZM103.33,65.19h2.97l-.13,17.11h-2.96l.13-17.11ZM91.66,76.56l-4.21-11.8h-4.19l6.46,18h3.89l6.73-18h-4.19l-4.5,11.8ZM99.74,65.18l-6.43,17.15h-3.34s-6.13-17.16-6.13-17.16h3.3l4.5,12.58,4.79-12.57h3.3ZM136.14,67.8c-.1,0-.19,0-.28,0-3.06.15-5.46,2.66-5.46,5.71,0,.06,0,.12,0,.18.1,3.12,2.62,5.56,5.74,5.56s5.72-2.58,5.72-5.74-2.57-5.72-5.72-5.72M136.14,78.79c-2.91,0-5.28-2.36-5.28-5.28s2.36-5.27,5.28-5.27,5.27,2.36,5.27,5.27-2.36,5.28-5.27,5.28M136.14,64.41c-.09,0-.18,0-.27,0-2.37.07-4.6,1.05-6.26,2.76-1.67,1.71-2.58,3.97-2.58,6.35,0,.06,0,.12,0,.17.09,4.93,4.18,8.94,9.11,8.94s9.11-4.09,9.11-9.11-4.09-9.11-9.11-9.11M136.14,82.21c-4.71,0-8.61-3.83-8.69-8.53,0-.06,0-.11,0-.16,0-4.73,3.71-8.55,8.44-8.69.09,0,.17,0,.26,0,4.79,0,8.69,3.9,8.69,8.69s-3.9,8.7-8.69,8.7"/>
    <path class="cls-8" d="M130.87,73.52c0,1.79.89,3.36,2.25,4.32.08.06.17.11.25.16-1.53-2.05-1.43-4.94.35-6.89.06-.07.12-.13.19-.2,1.58-1.57,3.9-1.96,5.87-1.2-.24-.23-.5-.44-.77-.62,0,0-.01,0-.02-.01-.11-.08-.23-.15-.35-.21-.74-.4-1.58-.62-2.48-.62-2.91,0-5.27,2.36-5.27,5.28"/>
    <path class="cls-2" d="M143.89,68.54s-.39-.4-.42-.42c1.12,1.51,1.78,3.38,1.78,5.4s-.68,3.93-1.82,5.45c-1.66,2.22-4.32,3.67-7.3,3.67-2.22,0-4.26-.81-5.85-2.16.23.27.48.56.48.57,1.04,1,2.27,1.69,3.57,2.08,3.2,1.25,6.98.59,9.56-1.99,3.47-3.47,3.47-9.12,0-12.6"/>
    <path class="cls-5" d="M39.94,71.48h-.02s.02.02.02.02h-3.67v-1.27h3.67v1.24ZM13.62,84.06l-1.38-1.31-2.25-5.01v4.16s.97,2.13.97,2.13l1.37,1.3h4.34l-.59-1.28h-2.46ZM4.79,82.75v-16.71s-1.29,0-1.29,0v17.98h0s0,0,0,0h0s1.48,1.31,1.48,1.31h3.71v-1.28h-2.42l-1.49-1.31ZM118.08,75.27l3.51-9.23h-.79l-3.12,8.14.39,1.09ZM51.9,76.36l4.1-10.32h-.77l-3.72,9.33.39.99ZM92.03,75.57l3.62-9.52h-.8l-3.22,8.43.39,1.09ZM19.25,82.77v-16.75s-1.29,0-1.29,0v18.04l1.49,1.28h3.5v-1.28h-2.22s-1.48-1.29-1.48-1.29ZM91.17,84.02l-1.46-1.27-5.99-16.71h-1.72l6.42,17.97h0s0,0,0,0h0l1.46,1.28h3.93l.44-1.28h-3.09ZM104.36,84.01l-1.58-1.25.1-16.69h-1.39v17.96h0s0,0,0,0h0s1.58,1.26,1.58,1.26l3.5.02v-1.3s-2.21-.01-2.21-.01ZM32.46,84.06l-1.41-1.3v-12.4h-3.46l-1.48-1.66v-2.67s-1.29,0-1.29,0v3.94h0s0,0,0,0h0s1.48,1.66,1.48,1.66h3.45v12.39l1.41,1.31h3.83v-1.28h-2.54ZM42.36,82.77l.07-16.71h-1.32v17.96l1.39,1.31h4v-1.29h-2.72s-1.41-1.27-1.41-1.27ZM49.38,82.74l-1.59-3.97-.02,5.26,1.73,1.31h4.19,0s0,0,0,0l.53-1.32h-3.43l-1.4-1.28ZM56.73,82.74v-3.07l-1.27,3.16-.02,1.21,1.41,1.29h4.01v-1.28s-2.72,0-2.72,0l-1.41-1.32ZM131.06,76.21s-.03-.05-.04-.08c.01.03.03.05.04.08M139.16,78.39h0s0,0,0,0h0M141.29,76.02s0,0,0,0c0,0,0,0,0,0M139.47,78.18s-.02.01-.02.02c0,0,.02-.01.02-.02M131.23,76.5,119.83,84.04h-2.75s-1.43-1.28-1.43-1.28l-5.99-16.7h-1.76l6.46,17.97h0s0,0,0,0l1.42,1.27,3.56.02h0s.48-1.28.48-1.28ZM144.34,80.65c-.4.73-.9,1.41-1.51,2.03-2.58,2.58-6.36,3.24-9.56,1.99-1.3-.39-2.53-1.08-3.56-2.08,0,0-.26-.3-.48-.57h0c-1.94-1.65-3.2-4.08-3.25-6.79,0-.06,0-.11,0-.17,0-2.19.77-4.27,2.19-5.92-.73,1.33-1.12,2.82-1.12,4.37,0,.06,0,.12,0,.17.05,2.72,1.32,5.16,3.27,6.8v.02s-.01-.02-.02-.02c.02.02.03.04.05.05h0s0,.01.01.02c.21.24.42.49.42.5,1.04,1,2.27,1.69,3.56,2.08,3.2,1.25,6.98.59,9.56-1.99.16-.16.3-.32.45-.49M139.91,69.83l-.14-.12c-1.96-.76-4.28-.36-5.87,1.2-.07.06-.13.13-.19.2-.32.35-.57.72-.78,1.12.79-.86,1.91-1.4,3.17-1.4,2.38,0,4.3,1.93,4.3,4.3,0,.66-.15,1.29-.42,1.85-.03.09-.07.17-.11.26.95-.95,1.54-2.27,1.54-3.73s-.58-2.73-1.51-3.68"/>
    <polygon class="cls-4" points="66.84 89.48 82.34 89.48 81.04 87.98 65.53 87.98 66.84 89.48"/>
    <polyline class="cls-2" points="81.04 87.98 81.04 84.02 82.34 85.52 82.34 89.48"/>
    <rect class="cls-8" x="65.94" y="84.44" width="14.69" height="3.13"/>
    <path class="cls-3" d="M65.53,87.98v-3.96h15.52v3.96h-15.52ZM65.94,84.44v3.13h14.68v-3.13h-14.68Z"/>
    <polygon class="cls-5" points="80.97 87.98 65.53 87.98 65.53 85.72 64.35 85.72 64.35 88.35 66.5 90.98 80.97 90.98 80.97 89.48 66.84 89.48 65.53 87.98 80.97 87.98"/>
    <polygon class="cls-4" points="66.84 64.48 82.34 64.48 81.04 62.98 65.53 62.98 66.84 64.48"/>
    <polyline class="cls-2" points="81.04 62.98 81.04 59.02 82.34 60.52 82.34 64.48"/>
    <rect class="cls-8" x="65.94" y="59.44" width="14.69" height="3.13"/>
    <path class="cls-3" d="M65.53,62.98v-3.96h15.52v3.96h-15.52ZM65.94,59.44v3.13h14.68v-3.13h-14.68Z"/>
    <polygon class="cls-5" points="80.97 62.98 65.53 62.98 65.53 60.72 64.35 60.72 64.35 63.35 66.5 65.98 80.97 65.98 80.97 64.48 66.84 64.48 65.53 62.98 80.97 62.98"/>
    <path class="cls-5" d="M74.85,69.83c-.12-.07-.24-.13-.37-.19.13.06.25.12.37.19"/>
    <path class="cls-5" d="M74.33,69.57s.07.03.1.04c-.03-.01-.07-.03-.1-.04"/>
    <path class="cls-5" d="M74.08,69.48s-.06-.02-.09-.03c.03,0,.06.02.09.03"/>
    <path class="cls-5" d="M74.16,69.51s.06.02.09.03c-.03-.01-.06-.02-.09-.03"/>
    <path class="cls-5" d="M75.13,70.01s-.07-.05-.11-.07c.04.02.07.05.11.07"/>
    <path class="cls-5" d="M74.99,69.91s-.07-.05-.11-.07c.04.02.07.05.11.07"/>
    <path class="cls-5" d="M73.27,69.3s-.05,0-.07,0c.02,0,.05,0,.07,0"/>
    <path class="cls-5" d="M73.07,69.28s-.04,0-.06,0c.02,0,.04,0,.06,0"/>
    <path class="cls-4" d="M70.79,72.17c.05-.05.1-.1.15-.15,1.17-1.17,2.86-1.51,4.33-1.02-.04-.03-.07-.06-.11-.08,0,0-.02-.01-.03-.02-.04-.03-.07-.05-.11-.07-.01,0-.02-.02-.04-.02-.04-.02-.07-.05-.11-.07,0,0-.02-.01-.03-.02-.12-.07-.24-.13-.37-.19-.02,0-.04-.02-.05-.02-.03-.01-.07-.03-.1-.04-.02,0-.05-.02-.07-.03-.03-.01-.06-.02-.09-.03-.03,0-.05-.02-.08-.03-.03,0-.06-.02-.09-.03-.03-.01-.07-.02-.1-.03-.03,0-.05-.02-.08-.02-.05-.01-.11-.03-.17-.04-.02,0-.05,0-.07-.01-.04,0-.08-.01-.12-.02-.02,0-.05,0-.07-.01-.04,0-.08-.01-.12-.01-.02,0-.05,0-.07,0-.04,0-.09,0-.13,0-.02,0-.04,0-.06,0-.06,0-.13,0-.19,0-.08,0-.14,0-.2,0-2.17.11-3.87,1.88-3.87,4.05,0,.04,0,.09,0,.13,0,.08,0,.16.01.23,0,.02,0,.05,0,.07,0,.05.01.11.02.16,0,.03,0,.05.01.08,0,.05.02.11.03.16,0,.02,0,.05.01.07.02.07.03.14.05.21,0,0,0,0,0,0,.02.07.04.15.07.22,0,.02.01.04.02.06.02.05.04.1.06.15,0,.02.02.04.03.07.02.05.04.1.07.15,0,.02.02.04.03.06.03.07.07.13.1.19,0,0,0,0,0,0,.04.07.08.13.12.19,0,.01.02.03.03.04.03.05.07.1.1.14.01.02.02.03.04.05.03.05.07.09.1.13.01.01.02.03.03.04.1.11.2.22.31.33,0,0,.02.02.03.02.05.04.09.08.14.13.01.01.03.02.04.04.05.04.09.07.14.11.01.01.03.02.04.03.06.04.12.09.18.13,0,0,0,0,0,0-1.23-1.61-1.16-3.91.23-5.45"/>
    <path class="cls-4" d="M78.89,70.18s-.04-.03-.05-.05c.05.07.09.14.14.21,0,.01.01.02.02.03.09.14.17.28.25.43,0,.01.01.02.02.03.08.15.15.29.21.44,0,.01.01.03.02.04.03.07.06.15.09.23.03.08.06.15.09.23,0,.01.01.03.02.04.03.08.05.15.08.23,0,0,0,0,0,0,.02.08.05.16.07.24,0,.02,0,.03.01.05.02.08.04.16.06.23,0,0,0,0,0,0,.02.08.04.16.05.24,0,.02,0,.04.01.06.01.08.03.16.04.24,0,0,0,0,0,0,.01.08.02.16.03.24,0,.02,0,.04,0,.06,0,.08.02.16.02.24,0,0,0,0,0,0,0,.08.01.17.01.25,0,.02,0,.04,0,.06,0,.08,0,.17,0,.25,0,4.02-3.27,7.28-7.28,7.28-.11,0-.21,0-.32,0-.03,0-.06,0-.08,0-.1,0-.2-.01-.3-.02-.01,0-.03,0-.04,0-.09,0-.18-.02-.28-.03-.04,0-.07-.01-.11-.02-.08-.01-.15-.03-.23-.04-.05,0-.1-.02-.14-.03-.06-.01-.13-.03-.19-.04-.05-.01-.1-.02-.14-.04-.05-.01-.1-.03-.14-.04-.09-.03-.18-.05-.27-.08-.03-.01-.07-.02-.1-.03-.06-.02-.12-.04-.18-.06-.02,0-.04-.01-.06-.02-.12-.05-.25-.1-.37-.15,0,0-.02,0-.03-.01-.21-.09-.42-.2-.62-.31,2.79,2.42,7.02,2.32,9.67-.33,2.77-2.77,2.77-7.27,0-10.04"/>
    <path class="cls-3" d="M72.81,81.5c-1.92,0-3.73-.74-5.1-2.09-1.37-1.35-2.14-3.14-2.18-5.06,0-.05,0-.09,0-.14,0-1.91.73-3.71,2.06-5.08,1.33-1.37,3.11-2.15,5-2.2.07,0,.14,0,.22,0,4.02,0,7.28,3.27,7.28,7.28s-3.27,7.28-7.28,7.28M72.81,67.31c-.07,0-.14,0-.2,0-3.75.11-6.7,3.14-6.7,6.89,0,.04,0,.09,0,.13.07,3.73,3.16,6.77,6.9,6.77s6.9-3.09,6.9-6.9-3.09-6.9-6.9-6.9M72.81,78.67c-2.42,0-4.38-1.9-4.46-4.32,0-.05,0-.09,0-.14,0-2.37,1.86-4.32,4.24-4.43.07,0,.14,0,.22,0,2.45,0,4.44,1.99,4.44,4.44s-1.99,4.46-4.44,4.46M72.81,70.16c-.08,0-.14,0-.2,0-2.17.11-3.87,1.88-3.87,4.05,0,.04,0,.09,0,.13.07,2.21,1.86,3.94,4.07,3.94s4.05-1.83,4.05-4.07-1.82-4.05-4.05-4.05"/>
    <path class="cls-8" d="M72.81,67.31c-.07,0-.14,0-.2,0-3.75.11-6.7,3.14-6.7,6.89,0,.04,0,.09,0,.13.07,3.73,3.16,6.77,6.9,6.77s6.9-3.1,6.9-6.9-3.09-6.9-6.9-6.9M72.81,78.67c-2.42,0-4.38-1.9-4.46-4.32,0-.05,0-.09,0-.14,0-2.37,1.86-4.32,4.24-4.43.07,0,.14,0,.22,0,2.45,0,4.44,1.99,4.44,4.44s-1.99,4.46-4.44,4.46"/>
    <path class="cls-5" d="M75.16,70.91s.08.05.11.08c-1.47-.48-3.16-.15-4.33,1.02-.05.05-.1.1-.15.15-.64.7-1,1.56-1.08,2.44.53-1.37,1.85-2.35,3.4-2.35,1.81,0,3.31,1.33,3.6,3.06.1-.35.16-.73.16-1.11,0-1.36-.68-2.57-1.71-3.3"/>
    <path class="cls-5" d="M78.89,80.21c-2.65,2.65-6.89,2.76-9.67.33h0c-.19-.11-.37-.22-.55-.34-.02-.02-.05-.03-.07-.05-.05-.03-.09-.07-.14-.1-.05-.04-.1-.07-.15-.11-.04-.03-.08-.06-.12-.1-.06-.05-.12-.1-.18-.16-.02-.02-.05-.04-.07-.06-.08-.07-.15-.14-.23-.21-.08-.08-.16-.16-.24-.24-.03-.03-.05-.06-.08-.09-.05-.05-.1-.11-.15-.17-.03-.04-.06-.07-.09-.11-.04-.05-.08-.1-.12-.15-.03-.04-.06-.08-.09-.13-.03-.05-.07-.09-.1-.14-.03-.05-.06-.09-.09-.14-.03-.04-.06-.09-.09-.13-.03-.05-.06-.1-.09-.15-.02-.04-.05-.08-.07-.12-.03-.06-.06-.11-.1-.17-.02-.03-.03-.07-.05-.1-.03-.07-.07-.13-.1-.2,0-.01-.01-.03-.02-.04-.17-.36-.31-.74-.42-1.12,0,0,0,0,0-.01-.03-.09-.05-.19-.07-.28,0-.01,0-.02,0-.03-.02-.09-.04-.19-.06-.28,0-.01,0-.02,0-.03-.02-.09-.03-.19-.05-.29,0,0,0-.02,0-.02-.01-.1-.03-.2-.04-.3-.04.32-.06.65-.06.99,0,4.24,3.41,7.67,7.61,7.67,3.62,0,6.65-2.54,7.42-5.96-.34.93-.89,1.81-1.64,2.56"/>
    <path class="cls-5" d="M73.89,69.42s-.05-.01-.08-.02c.03,0,.05.01.08.02"/>
    <path class="cls-5" d="M73.38,69.32s.05,0,.07.01c-.02,0-.05,0-.07-.01"/>
    <path class="cls-5" d="M73.58,69.35s.05,0,.07.01c-.02,0-.05,0-.07-.01"/>
  </g>
</svg>