<?xml version="1.0" encoding="UTF-8"?>
<svg id="Capa_2" data-name="Capa 2" xmlns="http://www.w3.org/2000/svg" xmlns:xlink="http://www.w3.org/1999/xlink" viewBox="0 0 80 80">
  <defs>
    <style>
      .cls-1 {
        fill: #4f0d10;
      }

      .cls-1, .cls-2, .cls-3, .cls-4 {
        stroke-width: 0px;
      }

      .cls-2 {
        fill: #ff4903;
      }

      .cls-3 {
        fill: none;
      }

      .cls-5 {
        clip-path: url(#clippath);
      }

      .cls-4 {
        fill: #791314;
      }
    </style>
    <clipPath id="clippath">
      <polygon class="cls-3" points="76.54 38.74 36.76 77.86 1.24 43.51 41.01 4.4 76.54 38.74"/>
    </clipPath>
  </defs>
  <g id="Capa_1-2" data-name="Capa 1">
    <circle class="cls-2" cx="40" cy="40" r="40"/>
    <g class="cls-5">
      <path class="cls-1" d="M66.92,68.7l-.17-.34-.73-1.01-1.23-1.17-.84-.89-.84-1.01-1.17-1.17-.95-.78-.34-.22-.22-.06-.22.06-.34.11-.95.78-1.06.67-1.06.56-1.12.5-1.23.39-1.23.28-1.23.17-1.17.06-1.23-.06-2.12-.56-3.07-1.28-1.01-.5-.78-.67-.73-.84-.56-.95-.45-1.01-.45-1.12-.28-1.01-.28-1.06-.22-1.12-.06-1.12.11-1.17.22-1.12.28-1.06.33-.95.45-1.01.08-.14c.71-.92,1.43-1.84,2.07-2.66l.53-.49.89-.73.95-.56,1.01-.45,1.01-.28,1.06-.17,1.17-.06h1.17l.78-.06h.78l.89.11,1.12.34.28.17.22.17.17.22.17.33.06,1.45-.22,1.01-.11,1.06.11,1.45.17.39.22.17.28.11.39.11,1.17.17,1.62.06,1.17-.06,2.9.11,1.17-.11.39-.11.33-.17.22-.28.11-.39.11-1.51-.11-1.12-.17-1.06-.05-1.56v-1.51l.11-1.06.06-1.06-.06-1.56-.06-.17-.39-.39-1.4-1.23-1.51-1.12-1.73-.95-1.73-.73-1.84-.5-1.9-.39-1.84-.28-1.9-.11-2.23.06-2.12.22-2.12.45s-2.08.59-2.09.6c0,0-.01.12,0,0-.14.08-.79.24-1.57.43-1.73-4.05-5.26-6.91-8.45-9.61l-.82-.62c-2.46-1.96-4.5-4.22-4.81-6.31-.36-2.45,2.3-4.06,3.61-4.1,1.79-.14,3.2.91,4.47,2.73,2.59,4.23,9.58,1.11,7.02-4.44-1.93-4.16-6.88-6.9-12.63-6.01-5.57.83-10.73,4.77-11.76,10.71-.15,1.19-.23,2.32-.08,3.4.73,4.85,4.65,8.04,8.4,11.23,3.22,2.7,6.03,5.09,6.49,8.44.67,4.55-2.92,7.93-6.57,8.44-4.07.56-7.61-1.3-8.11-5.31-.31-7.41-9.89-5.77-8.96.63,1.05,8.97,9.78,13.58,18.28,12.34.45-.07.89-.17,1.34-.27,0,0,0,.01,0,.01,0,0,.16,1.9.54,2.1l.22,1.17.56,2.07.78,2.01,1.01,1.96,1.17,1.73,1.51,1.62,1.56,1.51,1.62,1.4,1.96,1.06,2.01.73,3.13,1.01,2.12.45,2.12.22,2.29.06,1.06-.06,1.06-.17,2.12-.39,2.18-.34,2.01-.56,2.01-.84.89-.56.95-.56,1.73-1.12,1.62-1.45.33-.28.17-.28-.06-.28Z"/>
      <path class="cls-4" d="M69.16,67.57l-.17-.34-.73-1.01-1.23-1.17-.84-.89-.84-1.01-1.17-1.17-.95-.78-.34-.22-.22-.06-.22.06-.34.11-.95.78-1.06.67-1.06.56-1.12.5-1.23.39-1.23.28-1.23.17-1.17.06-1.23-.06-2.12-.56-3.07-1.28-1.01-.5-.78-.67-.73-.84-.56-.95-.45-1.01-.45-1.12-.28-1.01-.28-1.06-.22-1.12-.06-1.12.11-1.17.22-1.12.28-1.06.33-.95.45-1.01.08-.14c.71-.92,1.43-1.84,2.07-2.66l.53-.49.89-.73.95-.56,1.01-.45,1.01-.28,1.06-.17,1.17-.06h1.17l.78-.06h.78l.89.11,1.12.34.28.17.22.17.17.22.17.33.06,1.45-.22,1.01-.11,1.06.11,1.45.17.39.22.17.28.11.39.11,1.17.17,1.62.06,1.17-.06,2.9.11,1.17-.11.39-.11.33-.17.22-.28.11-.39.11-1.51-.11-1.12-.17-1.06-.05-1.56v-1.51l.11-1.06.06-1.06-.06-1.56-.06-.17-.39-.39-1.4-1.23-1.51-1.12-1.73-.95-1.73-.73-1.84-.5-1.9-.39-1.84-.28-1.9-.11-2.23.06-2.12.22-2.12.45s-2.08.58-2.08.58c0,0,0,.01,0,.02,0,0-.01.12,0,0-.14.08-.79.24-1.57.43-1.73-4.05-5.26-6.91-8.45-9.61l-.82-.62c-2.46-1.96-4.5-4.22-4.81-6.31-.36-2.45,2.3-4.06,3.61-4.1,1.79-.14,3.2.91,4.47,2.73,2.59,4.23,9.58,1.11,7.02-4.44-1.93-4.16-6.88-6.9-12.63-6.01-5.57.83-10.73,4.77-11.76,10.71-.15,1.19-.23,2.32-.08,3.4.73,4.85,4.65,8.04,8.4,11.23,3.22,2.7,6.03,5.09,6.49,8.44.67,4.55-2.92,7.93-6.57,8.44-4.07.56-7.61-1.3-8.11-5.31-.31-7.41-9.89-5.77-8.96.63,1.05,8.97,9.78,13.58,18.28,12.34.45-.07.89-.17,1.34-.27,0,0,0,.01,0,.01,0,0,.16,1.9.54,2.1l.22,1.17.56,2.07.78,2.01,1.01,1.96,1.17,1.73,1.51,1.62,1.56,1.51,1.62,1.4,1.96,1.06,2.01.73,3.13,1.01,2.12.45,2.12.22,2.29.06,1.06-.06,1.06-.17,2.12-.39,2.18-.34,2.01-.56,2.01-.84.89-.56.95-.56,1.73-1.12,1.62-1.45.33-.28.17-.28-.06-.28Z"/>
    </g>
  </g>
</svg>